<svg xmlns="http://www.w3.org/2000/svg" version="1.1" viewBox="10 10 80 80">
 <path d="m48.113 50h-19.062c-1.043 0-1.8867 0.84375-1.8867 1.8867v1.9375c0 0.5 0.19922 0.98047 0.55078 1.332 0.35547 0.35547 0.83594 0.55469 1.3359 0.55469h11.242l-17.508 17.508 0.003906-0.003906c-0.73828 0.73828-0.73828 1.9336 0 2.668l1.3281 1.3281c0.35156 0.35547 0.83203 0.55469 1.332 0.55469s0.98047-0.19922 1.3359-0.55469l17.508-17.508v11.246h-0.003907c0 0.5 0.19922 0.98047 0.55469 1.3359 0.35547 0.35156 0.83203 0.55078 1.332 0.55078h1.9375c0.5 0 0.98047-0.19922 1.3359-0.55078 0.35156-0.35547 0.55078-0.83594 0.55078-1.3359v-19.062c0-0.5-0.19922-0.98047-0.55078-1.3359-0.35547-0.35156-0.83594-0.55078-1.3359-0.55078z"/>
 <path d="m77.211 24.117-1.3281-1.3281c-0.73437-0.73828-1.9297-0.73828-2.668 0l-17.504 17.504v-11.242c0-0.5-0.19922-0.98047-0.55469-1.3359-0.35156-0.35156-0.83203-0.55078-1.332-0.55078h-1.9375c-1.043 0-1.8867 0.84375-1.8867 1.8867v19.062c0 0.5 0.19922 0.98047 0.55078 1.3359 0.35547 0.35156 0.83594 0.55078 1.3359 0.55078h19.062c0.5 0 0.98047-0.19922 1.3359-0.55078 0.35156-0.35547 0.55078-0.83594 0.55078-1.3359v-1.9375c0-0.5-0.19922-0.98047-0.55078-1.332-0.35547-0.35547-0.83594-0.55469-1.3359-0.55469h-11.242l17.508-17.508-0.003906 0.003906c0.73828-0.73828 0.73828-1.9336 0-2.668z"/>
</svg>