<svg xmlns="http://www.w3.org/2000/svg" version="1.1" viewBox="0 0 105 105">
 <path d="m89.297 52.414c-1.793-0.94922-14.504-5.8242-24.211-5.5391-0.42578-2.1797-1.2852-4.25-2.5781-6.082 2.5625-3.1406 6.8125-8.0547 16.082-13.66 5.1523-3.1016 5.8008-7.2578 5.7539-9.4531-0.16406-5.9531-5.6289-10.926-10.254-13.379-7.5078-3.9805-16.871-1.125-20.863 6.4102-0.9375 1.7695-5.6836 14.176-5.5547 23.832-2.5742 0.40625-5.0234 1.4023-7.0859 3.0078-3.1641-2.5781-7.9688-6.8594-13.445-15.906-1.2734-2.1016-2.8438-3.6484-4.6602-4.6094-6.832-3.6211-14.32 1.8438-18.184 9.1328-3.9805 7.5078-1.125 16.871 6.4062 20.863 1.793 0.94922 14.504 5.8242 24.199 5.5664 0.49219 2.5859 1.5625 5.0156 3.2773 7.043-2.6016 3.1523-6.8828 7.8945-15.73 13.227-5.1523 3.1016-5.8008 7.2578-5.7539 9.4531 0.16406 5.9531 5.6289 10.926 10.254 13.379 7.5078 3.9805 16.871 1.125 20.863-6.4102 0.96094-1.8164 5.9297-14.82 5.5508-24.578 2.1836-0.48828 4.2656-1.4336 6.0742-2.8008 3.1641 2.5781 7.9688 6.8594 13.445 15.906 1.2734 2.1016 2.8438 3.6484 4.6602 4.6094 6.832 3.6211 14.32-1.8438 18.184-9.1328 3.9492-7.5586 1.0781-16.898-6.4297-20.879zm-34.734-0.32031c-1.3242 2.4961-4.4492 3.4766-6.9688 2.1406-2.4961-1.3242-3.4766-4.4492-2.1406-6.9688 1.3242-2.4961 4.4336-3.4531 6.9531-2.1172 2.4961 1.3242 3.4766 4.4531 2.1562 6.9453z"/>
</svg>