<svg xmlns="http://www.w3.org/2000/svg" version="1.1" viewBox="10 10 80 80">
 <path d="m70.754 47.168h-17.922v-17.922c0-0.5-0.19922-0.98047-0.55469-1.3359-0.35547-0.35156-0.83203-0.55078-1.332-0.55078h-1.8906c-1.0391 0-1.8867 0.84375-1.8867 1.8867v17.922h-17.922c-1.043 0-1.8867 0.84766-1.8867 1.8867v1.8906c0 0.5 0.19922 0.97656 0.55078 1.332 0.35547 0.35547 0.83594 0.55469 1.3359 0.55469h17.922v17.926-0.003906c0 0.5 0.19922 0.98047 0.55469 1.3359 0.35547 0.35156 0.83203 0.55078 1.332 0.55078h1.8906c0.5 0 0.97656-0.19922 1.332-0.55078 0.35547-0.35547 0.55469-0.83594 0.55469-1.3359v-17.922h17.926-0.003906c0.5 0 0.98047-0.19922 1.3359-0.55469 0.35156-0.35547 0.55078-0.83203 0.55078-1.332v-1.8906c0-0.5-0.19922-0.97656-0.55078-1.332-0.35547-0.35547-0.83594-0.55469-1.3359-0.55469z"/>
</svg>