<svg xmlns="http://www.w3.org/2000/svg" version="1.1" viewBox="-5.0 -10.0 110.0 135.0">
 <path d="m69.258 48.664-10.539-10.539c-0.73438-0.73438-1.9297-0.73438-2.668 0l-1.332 1.332c-0.73438 0.73828-0.73438 1.9336 0 2.668l5.043 5.043h-15.062c-1.043 0-1.8867 0.84766-1.8867 1.8867v1.8906c0 0.5 0.19922 0.97656 0.55078 1.332 0.35547 0.35547 0.83594 0.55469 1.3359 0.55469h15.062l-5.043 5.043c-0.73438 0.73438-0.73438 1.9297 0 2.668l1.332 1.332c0.73828 0.73438 1.9336 0.73438 2.668 0l10.539-10.539c0.73828-0.73828 0.73828-1.9336 0-2.6719z"/>
 <path d="m51.887 64.152h-16.039v-28.305h16.039c0.5 0 0.98047-0.19922 1.3359-0.55078 0.35156-0.35547 0.55078-0.83594 0.55078-1.3359v-1.8867c0-0.5-0.19922-0.98047-0.55078-1.332-0.35547-0.35547-0.83594-0.55469-1.3359-0.55469h-19.812c-1.0391 0-1.8867 0.84766-1.8867 1.8867v35.852c0 0.5 0.19922 0.98047 0.55469 1.332 0.35156 0.35547 0.83203 0.55469 1.332 0.55469h19.812c0.5 0 0.98047-0.19922 1.3359-0.55469 0.35156-0.35156 0.55078-0.83203 0.55078-1.332v-1.8867c0-0.5-0.19922-0.98047-0.55078-1.3359-0.35547-0.35156-0.83594-0.55078-1.3359-0.55078z"/>
<text x="0.0" y="117.5" font-size="5.0" font-weight="bold" font-family="Arbeit Regular, Helvetica, Arial-Unicode, Arial, Sans-serif" fill="#000000">Created by Wan HD</text><text x="0.0" y="122.5" font-size="5.0" font-weight="bold" font-family="Arbeit Regular, Helvetica, Arial-Unicode, Arial, Sans-serif" fill="#000000">from Noun Project</text></svg>