<svg xmlns="http://www.w3.org/2000/svg" version="1.1" viewBox="10.0 10.0 80.0 80.0">
 <path d="m24.609 73.504v-18.797c0-1.0391 0.84375-1.8867 1.8867-1.8867h1.8672c0.5 0 0.98047 0.19922 1.3359 0.55469 0.35156 0.35156 0.55078 0.83203 0.55078 1.332v11.09l35.551-35.551-11.094 0.003906c-1.0391 0-1.8867-0.84375-1.8867-1.8867v-1.8672c0-1.043 0.84766-1.8867 1.8867-1.8867h18.797c0.5 0 0.98047 0.19531 1.3359 0.55078 0.35156 0.35547 0.55078 0.83594 0.55078 1.3359v18.797c0 0.5-0.19922 0.98047-0.55078 1.332-0.35547 0.35547-0.83594 0.55469-1.3359 0.55469h-1.8672c-1.043 0-1.8867-0.84766-1.8867-1.8867v-11.094l-35.551 35.551h11.094c0.5 0 0.98047 0.19922 1.332 0.55078 0.35547 0.35547 0.55469 0.83594 0.55469 1.3359v1.8672c0 0.5-0.19922 0.98047-0.55469 1.3359-0.35156 0.35547-0.83203 0.55078-1.332 0.55078h-18.797c-0.5 0-0.98047-0.19531-1.3359-0.55078-0.35547-0.35547-0.55078-0.83594-0.55078-1.3359z"/>
</svg>