<svg xmlns="http://www.w3.org/2000/svg" version="1.1" viewBox="10 10 80 80">
 <path d="m74.695 70.707-16.613-16.613c1.168-1.4766 2.082-3.1367 2.707-4.9141 0.67188-1.8984 1.0078-3.8984 0.99609-5.9102 0.042969-4.9219-1.8945-9.6562-5.375-13.141-3.4844-3.4805-8.2188-5.418-13.141-5.375-4.9219-0.042968-9.6562 1.8945-13.141 5.375-3.4805 3.4844-5.418 8.2188-5.375 13.141-0.042968 4.9219 1.8945 9.6562 5.375 13.141 3.4844 3.4805 8.2188 5.418 13.141 5.375 2.0117 0.011719 4.0117-0.32422 5.9102-0.99609 1.7773-0.625 3.4375-1.5391 4.9141-2.707l16.613 16.613c0.73438 0.73438 1.9297 0.73438 2.668 0l1.3203-1.3203c0.35156-0.35547 0.55078-0.83594 0.55078-1.3359s-0.19922-0.98047-0.55078-1.332zm-22.348-18.359c-2.3789 2.4492-5.6641 3.8008-9.0781 3.7383-3.4023 0.015624-6.6719-1.3281-9.0781-3.7383-2.4102-2.4062-3.7539-5.6758-3.7422-9.0781-0.011719-3.4023 1.332-6.6719 3.7422-9.0781 2.4062-2.4102 5.6758-3.7539 9.0781-3.7422 3.4023-0.011719 6.6719 1.332 9.0781 3.7422 2.4102 2.4062 3.7539 5.6758 3.7422 9.0781 0.058594 3.4141-1.293 6.6992-3.7422 9.0781z"/>
 <path d="m49.93 40.422h-3.8125v-3.8125c0-0.5-0.19922-0.98047-0.55078-1.332-0.35547-0.35547-0.83594-0.55469-1.3359-0.55469h-1.9219c-1.043 0-1.8867 0.84766-1.8867 1.8867v3.8086l-3.8125 0.003906c-1.0391 0-1.8867 0.84375-1.8867 1.8867v1.9219c0 0.5 0.19922 0.98047 0.55469 1.3359 0.35156 0.35156 0.83203 0.55078 1.332 0.55078h3.8086l0.003906 3.8125c0 0.5 0.19922 0.98047 0.55078 1.332 0.35547 0.35547 0.83594 0.55469 1.3359 0.55469h1.9219c0.5 0 0.98047-0.19922 1.3359-0.55469 0.35156-0.35156 0.55078-0.83203 0.55078-1.332v-3.8125h3.8125c1.0391 0 1.8867-0.84375 1.8867-1.8867v-1.9219c0-0.5-0.19922-0.98047-0.55469-1.3359-0.35156-0.35156-0.83203-0.55078-1.332-0.55078z"/>
</svg>