<svg version="1.0" xmlns="http://www.w3.org/2000/svg" preserveAspectRatio="xMidYMid meet" viewBox="88 143.38 661.02 231.95">

<g transform="translate(0.000000,518.000000) scale(0.100000,-0.100000)" fill="#000000" stroke="none">
<path d="M6115 3736 c-272 -45 -492 -160 -674 -351 -136 -144 -225 -304 -279 -504 -23 -88 -26 -113 -26 -301 -1 -187 1 -212 23 -290 126 -446 465 -758 919 -846 117 -23 337 -23 454 0 376 72 678 299 838 630 161 331 160 703 -2 1030 -160 324 -449 545 -813 621 -106 23 -336 28 -440 11z m306 -500 c119 -22 200 -65 295 -160 65 -65 89 -98 122 -166 59 -123 76 -195 76 -325 0 -73 -6 -132 -18 -175 -63 -233 -229 -412 -433 -465 -74 -19 -222 -19 -298 0 -200 51 -362 209 -433 422 -23 70 -26 94 -26 223 0 133 2 152 27 225 109 312 377 476 688 421z"/>
<path d="M1345 2633 c-235 -588 -436 -1089 -446 -1115 l-19 -48 293 0 294 0 301 343 301 342 -162 3 c-89 1 -165 6 -170 11 -7 7 283 814 298 829 3 3 7 3 9 1 2 -2 122 -323 265 -714 144 -390 271 -734 283 -762 l20 -53 294 0 c162 0 294 4 294 8 0 5 -35 96 -78 203 -137 340 -601 1484 -711 1754 l-106 260 -267 3 -266 2 -427 -1067z"/>
<path d="M3320 2585 l0 -1115 280 0 280 0 0 542 c0 455 2 540 13 528 8 -8 132 -202 277 -430 145 -228 296 -466 336 -527 l73 -113 346 0 c190 0 345 2 345 5 0 3 -174 252 -387 553 -212 301 -386 552 -386 557 0 6 176 258 391 560 l392 550 -333 3 c-182 1 -337 0 -343 -2 -6 -2 -165 -240 -354 -528 -188 -287 -349 -530 -356 -538 -12 -12 -14 68 -14 528 l0 542 -280 0 -280 0 0 -1115z"/>
</g>
</svg>