<svg xmlns="http://www.w3.org/2000/svg" xmlns:xlink="http://www.w3.org/1999/xlink" version="1.1" x="0px" y="0px" viewBox="0 0 105 105" enable-background="new 0 0 100 100" xml:space="preserve">
<path d="M93.864,57.327c-1.154,1.565-2.935,2.397-4.735,2.397c-1.213,0-2.426-0.372-3.473-1.144L72.744,49.1l-13.255,4.304  l8.198,11.269L83.7,64.595h0.029c3.228,0,5.86,2.602,5.869,5.84c0.02,3.238-2.592,5.879-5.84,5.899l-7.571,0.039l1.458,2.005  c1.898,2.622,1.321,6.29-1.301,8.198c-1.047,0.763-2.25,1.125-3.443,1.125c-1.819,0-3.61-0.841-4.754-2.426l-1.458-2.015  l-2.387,7.21c-0.812,2.465-3.101,4.03-5.566,4.03c-0.616,0-1.233-0.098-1.849-0.303c-3.072-1.017-4.744-4.333-3.727-7.415  l5.028-15.211L50,60.301L41.812,71.57l5.028,15.211c1.017,3.081-0.655,6.398-3.727,7.415c-0.616,0.206-1.233,0.303-1.849,0.303  c-2.465,0-4.754-1.565-5.566-4.03l-2.387-7.21l-1.458,2.015c-1.145,1.585-2.935,2.426-4.754,2.426c-1.193,0-2.397-0.362-3.443-1.125  c-2.622-1.908-3.199-5.576-1.301-8.198l1.458-2.005l-7.571-0.039c-3.248-0.02-5.86-2.661-5.84-5.899  c0.01-3.238,2.641-5.84,5.869-5.84H16.3l16.014,0.078l8.198-11.269L27.256,49.1l-12.913,9.479c-1.047,0.773-2.26,1.144-3.473,1.144  c-1.8,0-3.58-0.831-4.735-2.397c-1.917-2.612-1.35-6.29,1.262-8.207l6.114-4.49l-2.367-0.763c-3.081-0.998-4.774-4.314-3.766-7.395  c0.998-3.081,4.314-4.774,7.395-3.766l2.358,0.763l-2.299-7.219c-0.988-3.091,0.714-6.388,3.805-7.376  c3.081-0.988,6.388,0.724,7.376,3.805l4.862,15.26h0.01l13.245,4.304v-13.94l-13.01-9.342c-2.631-1.888-3.228-5.556-1.34-8.188  c1.898-2.631,5.566-3.228,8.198-1.34l6.153,4.422V11.37C44.131,8.132,46.762,5.5,50,5.5s5.869,2.631,5.869,5.869v2.485l6.153-4.422  c2.631-1.888,6.3-1.291,8.198,1.34c1.888,2.631,1.291,6.3-1.34,8.188l-13.01,9.342v13.94l13.245-4.304h0.01l4.862-15.26  c0.988-3.091,4.294-4.784,7.376-3.805c3.091,0.988,4.793,4.285,3.805,7.376l-2.299,7.219l2.358-0.763  c3.081-0.998,6.398,0.685,7.395,3.766c1.008,3.082-0.685,6.398-3.766,7.395l-2.367,0.763l6.114,4.49  C95.214,51.037,95.781,54.715,93.864,57.327z"/>
</svg>