<svg xmlns="http://www.w3.org/2000/svg" version="1.1" viewBox="32.22 32.75 35.57 34.5">
 <path d="m57.719 52.844h-23.605c-1.0391 0-1.8867-0.84766-1.8867-1.8867v-1.8867c0-1.043 0.84766-1.8867 1.8867-1.8867h23.621l-9.8398-9.875h0.003907c-0.35547-0.35547-0.55078-0.83594-0.55078-1.3359s0.19922-0.98047 0.55469-1.332l1.3359-1.332c0.73828-0.73438 1.9336-0.73438 2.668 0.003906l15.316 15.367c0.73438 0.73828 0.73438 1.9336-0.003906 2.668l-15.344 15.34h0.003906c-0.73828 0.73828-1.9336 0.73828-2.668 0l-1.332-1.332h-0.003906c-0.35547-0.35547-0.55078-0.83594-0.55078-1.3359s0.19531-0.98047 0.55078-1.332z"/>
</svg>